<svg width="48" height="48" viewBox="0 0 48 48" fill="none" xmlns="http://www.w3.org/2000/svg">
<rect x="12" y="12" width="24" height="24" rx="4.5" fill="white"/>
<path d="M24.4229 15.0117C29.2831 15.2583 33.1484 19.2777 33.1484 24.1992L33.1357 24.6719C32.8895 29.5324 28.8709 33.3974 23.9492 33.3975L23.4756 33.3857C18.7718 33.1473 15 29.3757 14.7617 24.6719L14.75 24.1992C14.75 19.1188 18.8687 15 23.9492 15L24.4229 15.0117ZM23.9492 18C20.5256 18 17.75 20.7757 17.75 24.1992C17.7502 27.6226 20.5257 30.3974 23.9492 30.3975C27.3727 30.3974 30.1482 27.6225 30.1484 24.1992C30.1484 20.7758 27.3728 18.0001 23.9492 18Z" fill="#172554"/>
<path d="M23.9494 22.7572C24.7454 22.7574 25.3908 23.4036 25.3908 24.1996C25.3906 24.9954 24.7452 25.6408 23.9494 25.641C23.1534 25.641 22.5072 24.9955 22.507 24.1996C22.507 23.4035 23.1533 22.7572 23.9494 22.7572Z" stroke="#172554" stroke-width="1.1494"/>
</svg>
